{
  "asset": {
    "generator": "Khronos glTF Blender I/O v1.6.16",
    "version": "2.0"
  },
  "scene": 0,
  "scenes": [
    {
      "name": "Scene",
      "nodes": [
        0
      ]
    }
  ],
  "nodes": [
    {
      "mesh": 0,
      "name": "sphere_gltf"
    }
  ],
  "materials": [
    {
      "doubleSided": true,
      "name": "wood_plank_wall",
      "normalTexture": {
        "index": 0
      },
      "pbrMetallicRoughness": {
        "baseColorTexture": {
          "index": 1
        },
        "metallicFactor": 0,
        "metallicRoughnessTexture": {
          "index": 2
        }
      }
    }
  ],
  "meshes": [
    {
      "name": "Sphere.001",
      "primitives": [
        {
          "attributes": {
            "POSITION": 0,
            "NORMAL": 1,
            "TEXCOORD_0": 2
          },
          "indices": 3,
          "material": 0
        }
      ]
    }
  ],
  "textures": [
    {
      "sampler": 0,
      "source": 0
    },
    {
      "sampler": 0,
      "source": 1
    },
    {
      "sampler": 0,
      "source": 2
    }
  ],
  "images": [
    {
      "mimeType": "image/jpeg",
      "name": "wood_plank_wall_nor_gl_8k",
      "uri": "textures/wood_plank_wall_nor_gl_1k.jpg"
    },
    {
      "mimeType": "image/jpeg",
      "name": "wood_plank_wall_diff_8k",
      "uri": "textures/wood_plank_wall_diff_1k.jpg"
    },
    {
      "mimeType": "image/jpeg",
      "name": "wood_plank_wall_arm_8k",
      "uri": "textures/wood_plank_wall_arm_1k.jpg"
    }
  ],
  "accessors": [
    {
      "bufferView": 0,
      "componentType": 5126,
      "count": 53993,
      "max": [
        0.5130580067634583,
        0.5138662457466125,
        0.5120793581008911
      ],
      "min": [
        -0.5130580067634583,
        -0.5064244866371155,
        -0.5120818614959717
      ],
      "type": "VEC3"
    },
    {
      "bufferView": 1,
      "componentType": 5126,
      "count": 53993,
      "type": "VEC3"
    },
    {
      "bufferView": 2,
      "componentType": 5126,
      "count": 53993,
      "type": "VEC2"
    },
    {
      "bufferView": 3,
      "componentType": 5123,
      "count": 322170,
      "type": "SCALAR"
    }
  ],
  "bufferViews": [
    {
      "buffer": 0,
      "byteLength": 647916,
      "byteOffset": 0
    },
    {
      "buffer": 0,
      "byteLength": 647916,
      "byteOffset": 647916
    },
    {
      "buffer": 0,
      "byteLength": 431944,
      "byteOffset": 1295832
    },
    {
      "buffer": 0,
      "byteLength": 644340,
      "byteOffset": 1727776
    }
  ],
  "samplers": [
    {
      "magFilter": 9729,
      "minFilter": 9987
    }
  ],
  "buffers": [
    {
      "byteLength": 2372116,
      "uri": "wood_plank_wall.bin"
    }
  ]
}