{
  "asset": {
    "generator": "Khronos glTF Blender I/O v4.4.56",
    "version": "2.0"
  },
  "extensionsUsed": [
    "KHR_texture_transform",
    "KHR_materials_specular",
    "KHR_materials_sheen"
  ],
  "extensionsRequired": [
    "KHR_texture_transform"
  ],
  "scene": 0,
  "scenes": [
    {
      "name": "Scene",
      "nodes": [
        0
      ]
    }
  ],
  "nodes": [
    {
      "mesh": 0,
      "name": "sphere_gltf"
    }
  ],
  "materials": [
    {
      "doubleSided": true,
      "extensions": {
        "KHR_materials_specular": {
          "specularTexture": {
            "extensions": {
              "KHR_texture_transform": {
                "scale": [
                  0.843828022480011,
                  1
                ]
              }
            },
            "index": 0
          }
        },
        "KHR_materials_sheen": {
          "sheenColorFactor": [
            1,
            1,
            1
          ],
          "sheenRoughnessFactor": 0.5
        }
      },
      "name": "curly_teddy_checkered",
      "normalTexture": {
        "extensions": {
          "KHR_texture_transform": {
            "scale": [
              0.843828022480011,
              1
            ]
          }
        },
        "index": 1
      },
      "pbrMetallicRoughness": {
        "baseColorTexture": {
          "extensions": {
            "KHR_texture_transform": {
              "scale": [
                0.843828022480011,
                1
              ]
            }
          },
          "index": 2
        },
        "metallicRoughnessTexture": {
          "extensions": {
            "KHR_texture_transform": {
              "scale": [
                0.843828022480011,
                1
              ]
            }
          },
          "index": 3
        }
      }
    }
  ],
  "meshes": [
    {
      "name": "Sphere.001",
      "primitives": [
        {
          "attributes": {
            "POSITION": 0,
            "NORMAL": 1,
            "TEXCOORD_0": 2
          },
          "indices": 3,
          "material": 0
        }
      ]
    }
  ],
  "textures": [
    {
      "sampler": 0,
      "source": 0
    },
    {
      "sampler": 0,
      "source": 1
    },
    {
      "sampler": 0,
      "source": 2
    },
    {
      "sampler": 0,
      "source": 3
    }
  ],
  "images": [
    {
      "mimeType": "image/jpeg",
      "name": "curly_teddy_checkered_spec_ior",
      "uri": "textures/curly_teddy_checkered_spec_ior_1k.jpg"
    },
    {
      "mimeType": "image/jpeg",
      "name": "curly_teddy_checkered_nor_gl",
      "uri": "textures/curly_teddy_checkered_nor_gl_1k.jpg"
    },
    {
      "mimeType": "image/jpeg",
      "name": "curly_teddy_checkered_diff",
      "uri": "textures/curly_teddy_checkered_diff_1k.jpg"
    },
    {
      "mimeType": "image/jpeg",
      "name": "curly_teddy_checkered_metal-curly_teddy_checkered_rough",
      "uri": "textures/curly_teddy_checkered_arm_1k.jpg"
    }
  ],
  "accessors": [
    {
      "bufferView": 0,
      "componentType": 5126,
      "count": 53933,
      "max": [
        0.23725903034210205,
        0.2373608499765396,
        0.23735232651233673
      ],
      "min": [
        -0.23725908994674683,
        -0.23719744384288788,
        -0.2373512089252472
      ],
      "type": "VEC3"
    },
    {
      "bufferView": 1,
      "componentType": 5126,
      "count": 53933,
      "type": "VEC3"
    },
    {
      "bufferView": 2,
      "componentType": 5126,
      "count": 53933,
      "type": "VEC2"
    },
    {
      "bufferView": 3,
      "componentType": 5123,
      "count": 322170,
      "type": "SCALAR"
    }
  ],
  "bufferViews": [
    {
      "buffer": 0,
      "byteLength": 647196,
      "byteOffset": 0,
      "target": 34962
    },
    {
      "buffer": 0,
      "byteLength": 647196,
      "byteOffset": 647196,
      "target": 34962
    },
    {
      "buffer": 0,
      "byteLength": 431464,
      "byteOffset": 1294392,
      "target": 34962
    },
    {
      "buffer": 0,
      "byteLength": 644340,
      "byteOffset": 1725856,
      "target": 34963
    }
  ],
  "samplers": [
    {
      "magFilter": 9729,
      "minFilter": 9987
    }
  ],
  "buffers": [
    {
      "byteLength": 2370196,
      "uri": "curly_teddy_checkered.bin"
    }
  ]
}